<svg width="200" height="200" viewBox="0 0 200 200" fill="none" xmlns="http://www.w3.org/2000/svg">
  <rect width="200" height="200" fill="white"/>
  <path d="M100 55C79.0132 55 62 72.0132 62 93C62 113.987 79.0132 131 100 131C120.987 131 138 113.987 138 93C138 72.0132 120.987 55 100 55ZM100 125C82.3553 125 68 110.645 68 93C68 75.3553 82.3553 61 100 61C117.645 61 132 75.3553 132 93C132 110.645 117.645 125 100 125Z" fill="#CCCCCC"/>
  <path d="M122 142H78C76.35 142 75 143.35 75 145V155C75 156.65 76.35 158 78 158H122C123.65 158 125 156.65 125 155V145C125 143.35 123.65 142 122 142ZM119 152H81V148H119V152Z" fill="#CCCCCC"/>
  <path d="M101 89H99V83H93V81H99V75H101V81H107V83H101V89Z" fill="#AAAAAA"/>
</svg>